<svg id="Minecraft_Bedrock_Edition" xmlns="http://www.w3.org/2000/svg" xmlns:xlink="http://www.w3.org/1999/xlink" viewBox="0 0 1518 492"><defs><style>.cls-1{fill:url(#Base_Gradient);}.cls-2{fill:url(#Base_Gradient-2);}.cls-3{fill:url(#Base_Gradient-3);}.cls-4{fill:url(#Base_Gradient-4);}.cls-5{fill:url(#Base_Gradient-5);}.cls-6{fill:url(#Base_Gradient-6);}.cls-7{fill:url(#Base_Gradient-7);}.cls-8{fill:url(#Base_Gradient-8);}.cls-9{fill:url(#Base_Gradient-9);}.cls-10{fill:#3d3938;}.cls-11{fill:url(#Base_Gradient-10);}.cls-12{fill:url(#Front_Face_Gradient);}.cls-13{fill:#998f8b;}.cls-14{fill:#262423;}.cls-15{fill:#6b6562;}.cls-16{fill:#171615;}.cls-17{fill:url(#Crack_Highlight_Gradient);}.cls-18{fill:url(#Crack_Highlight_Gradient-2);}.cls-19{fill:url(#Crack_Highlight_Gradient-3);}.cls-20{fill:url(#Crack_Highlight_Gradient-4);}.cls-21{fill:url(#Crack_Highlight_Gradient-5);}.cls-22{fill:url(#Crack_Highlight_Gradient-6);}.cls-23{fill:url(#Crack_Highlight_Gradient-7);}.cls-24{fill:url(#Crack_Highlight_Gradient-8);}.cls-25{fill:url(#Crack_Highlight_Gradient-9);}.cls-26{fill:url(#Crack_Highlight_Gradient-10);}.cls-27{fill:url(#Crack_Highlight_Gradient-11);}.cls-28{fill:url(#Crack_Highlight_Gradient-12);}.cls-29{fill:url(#Crack_Highlight_Gradient-13);}.cls-30{fill:url(#Crack_Highlight_Gradient-14);}.cls-31{fill:url(#Crack_Highlight_Gradient-15);}.cls-32{fill:url(#Crack_Highlight_Gradient-16);}.cls-33{fill:url(#Crack_Highlight_Gradient-17);}.cls-34{fill:url(#Crack_Highlight_Gradient-18);}.cls-35{fill:url(#Crack_Highlight_Gradient-19);}.cls-36{fill:url(#Crack_Highlight_Gradient-20);}.cls-37{fill:url(#Crack_Highlight_Gradient-21);}.cls-38{fill:url(#Crack_Highlight_Gradient-22);}.cls-39{fill:url(#Crack_Highlight_Gradient-23);}.cls-40{fill:url(#Crack_Highlight_Gradient-24);}.cls-41{fill:url(#Crack_Highlight_Gradient-25);}.cls-42{fill:url(#Crack_Highlight_Gradient-26);}.cls-43{fill:url(#Crack_Highlight_Gradient-27);}.cls-44{fill:url(#Crack_Highlight_Gradient-28);}.cls-45{fill:url(#Crack_Highlight_Gradient-29);}.cls-46{fill:url(#Crack_Highlight_Gradient-30);}.cls-47{fill:url(#Crack_Highlight_Gradient-31);}.cls-48{fill:url(#Crack_Highlight_Gradient-32);}.cls-49{fill:url(#Crack_Highlight_Gradient-33);}.cls-50{fill:url(#Crack_Highlight_Gradient-34);}.cls-51{fill:url(#Crack_Highlight_Gradient-35);}.cls-52{fill:url(#Crack_Highlight_Gradient-36);}.cls-53{fill:url(#Crack_Highlight_Gradient-37);}.cls-54{fill:url(#Crack_Highlight_Gradient-38);}.cls-55{fill:url(#Crack_Highlight_Gradient-39);}.cls-56{fill:url(#Crack_Highlight_Gradient-40);}.cls-57{fill:url(#Crack_Highlight_Gradient-41);}.cls-58{fill:url(#Crack_Highlight_Gradient-42);}.cls-59{fill:url(#Crack_Highlight_Gradient-43);}.cls-60{fill:url(#Crack_Highlight_Gradient-44);}.cls-61{fill:url(#Crack_Highlight_Gradient-45);}.cls-62{fill:url(#Crack_Highlight_Gradient-46);}.cls-63{fill:url(#Crack_Highlight_Gradient-47);}.cls-64{fill:url(#Crack_Highlight_Gradient-48);}.cls-65{fill:url(#Crack_Highlight_Gradient-49);}.cls-66{fill:url(#Crack_Highlight_Gradient-50);}.cls-67{fill:url(#Crack_Highlight_Gradient-51);}.cls-68{fill:url(#Crack_Highlight_Gradient-52);}.cls-69{fill:url(#Crack_Highlight_Gradient-53);}.cls-70{fill:url(#Crack_Highlight_Gradient-54);}.cls-71{fill:url(#Crack_Highlight_Gradient-55);}.cls-72{fill:url(#Crack_Highlight_Gradient-56);}.cls-73{fill:url(#Crack_Highlight_Gradient-57);}.cls-74{fill:url(#Crack_Highlight_Gradient-58);}.cls-75{fill:url(#Crack_Highlight_Gradient-59);}.cls-76{fill:url(#Crack_Highlight_Gradient-60);}.cls-77{fill:url(#Crack_Highlight_Gradient-61);}.cls-78{fill:url(#Crack_Highlight_Gradient-62);}.cls-79{fill:url(#Crack_Highlight_Gradient-63);}.cls-80{fill:url(#Crack_Highlight_Gradient-64);}.cls-81{fill:url(#Crack_Highlight_Gradient-65);}.cls-82{fill:url(#Crack_Highlight_Gradient-66);}.cls-83{fill:url(#Crack_Highlight_Gradient-67);}.cls-84{fill:url(#Crack_Highlight_Gradient-68);}.cls-85{fill:url(#Crack_Highlight_Gradient-69);}.cls-86{fill:url(#Crack_Highlight_Gradient-70);}.cls-87{fill:url(#Crack_Highlight_Gradient-71);}.cls-88{fill:url(#Crack_Highlight_Gradient-72);}.cls-89{fill:url(#Crack_Highlight_Gradient-73);}.cls-90{fill:#d0c5c0;}.cls-91{fill:#ede5e2;}</style><linearGradient id="Base_Gradient" x1="364.43" y1="300.14" x2="364.43" y2="321.15" gradientUnits="userSpaceOnUse"><stop offset="0" stop-color="#3d3938"/><stop offset="1" stop-color="#1c1b1a"/></linearGradient><linearGradient id="Base_Gradient-2" x1="436.13" y1="300.14" x2="436.13" y2="321.15" xlink:href="#Base_Gradient"/><linearGradient id="Base_Gradient-3" x1="632.37" y1="300.14" x2="632.37" y2="321.15" xlink:href="#Base_Gradient"/><linearGradient id="Base_Gradient-4" x1="777.47" y1="300.14" x2="777.47" y2="321.15" xlink:href="#Base_Gradient"/><linearGradient id="Base_Gradient-5" x1="885.76" y1="300.14" x2="885.76" y2="321.15" xlink:href="#Base_Gradient"/><linearGradient id="Base_Gradient-6" x1="957.46" y1="300.14" x2="957.46" y2="321.15" xlink:href="#Base_Gradient"/><linearGradient id="Base_Gradient-7" x1="1029.17" y1="300.14" x2="1029.17" y2="321.15" xlink:href="#Base_Gradient"/><linearGradient id="Base_Gradient-8" x1="1100.88" y1="300.14" x2="1100.88" y2="321.15" xlink:href="#Base_Gradient"/><linearGradient id="Base_Gradient-9" x1="1172.59" y1="300.14" x2="1172.59" y2="321.15" xlink:href="#Base_Gradient"/><linearGradient id="Base_Gradient-10" x1="525.77" y1="300.14" x2="525.77" y2="321.15" xlink:href="#Base_Gradient"/><linearGradient id="Front_Face_Gradient" x1="759.06" y1="121.2" x2="759.06" y2="273.61" gradientUnits="userSpaceOnUse"><stop offset="0" stop-color="#d0c5c0"/><stop offset="0.99" stop-color="#aba09c"/></linearGradient><linearGradient id="Crack_Highlight_Gradient" x1="723.54" y1="142.7" x2="723.54" y2="272.48" gradientUnits="userSpaceOnUse"><stop offset="0" stop-color="#ede5e2"/><stop offset="1" stop-color="#d0c5c0"/></linearGradient><linearGradient id="Crack_Highlight_Gradient-2" x1="435.91" y1="142.7" x2="435.91" y2="272.48" xlink:href="#Crack_Highlight_Gradient"/><linearGradient id="Crack_Highlight_Gradient-3" x1="507.81" y1="142.7" x2="507.81" y2="272.48" xlink:href="#Crack_Highlight_Gradient"/><linearGradient id="Crack_Highlight_Gradient-4" x1="1352.72" y1="142.7" x2="1352.72" y2="272.48" xlink:href="#Crack_Highlight_Gradient"/><linearGradient id="Crack_Highlight_Gradient-5" x1="151.96" y1="142.7" x2="151.96" y2="272.48" xlink:href="#Crack_Highlight_Gradient"/><linearGradient id="Crack_Highlight_Gradient-6" x1="170.55" y1="142.7" x2="170.55" y2="272.48" xlink:href="#Crack_Highlight_Gradient"/><linearGradient id="Crack_Highlight_Gradient-7" x1="175.2" y1="142.7" x2="175.2" y2="272.48" xlink:href="#Crack_Highlight_Gradient"/><linearGradient id="Crack_Highlight_Gradient-8" x1="224.98" y1="142.7" x2="224.98" y2="272.48" xlink:href="#Crack_Highlight_Gradient"/><linearGradient id="Crack_Highlight_Gradient-9" x1="280.74" y1="142.7" x2="280.74" y2="272.48" xlink:href="#Crack_Highlight_Gradient"/><linearGradient id="Crack_Highlight_Gradient-10" x1="354.81" y1="142.7" x2="354.81" y2="272.48" xlink:href="#Crack_Highlight_Gradient"/><linearGradient id="Crack_Highlight_Gradient-11" x1="424.55" y1="142.7" x2="424.55" y2="272.48" xlink:href="#Crack_Highlight_Gradient"/><linearGradient id="Crack_Highlight_Gradient-12" x1="581.73" y1="142.95" x2="581.73" y2="272.38" xlink:href="#Crack_Highlight_Gradient"/><linearGradient id="Crack_Highlight_Gradient-13" x1="662.15" y1="142.7" x2="662.15" y2="272.48" xlink:href="#Crack_Highlight_Gradient"/><linearGradient id="Crack_Highlight_Gradient-14" x1="900.94" y1="142.7" x2="900.94" y2="272.48" xlink:href="#Crack_Highlight_Gradient"/><linearGradient id="Crack_Highlight_Gradient-15" x1="940.09" y1="142.7" x2="940.09" y2="272.48" xlink:href="#Crack_Highlight_Gradient"/><linearGradient id="Crack_Highlight_Gradient-16" x1="1039.12" y1="142.7" x2="1039.12" y2="272.48" xlink:href="#Crack_Highlight_Gradient"/><linearGradient id="Crack_Highlight_Gradient-17" x1="1103.54" y1="142.71" x2="1103.54" y2="272.48" xlink:href="#Crack_Highlight_Gradient"/><linearGradient id="Crack_Highlight_Gradient-18" x1="1022.77" y1="142.7" x2="1022.77" y2="272.48" xlink:href="#Crack_Highlight_Gradient"/><linearGradient id="Crack_Highlight_Gradient-19" x1="1053.43" y1="142.7" x2="1053.43" y2="272.48" xlink:href="#Crack_Highlight_Gradient"/><linearGradient id="Crack_Highlight_Gradient-20" x1="1108.63" y1="142.7" x2="1108.63" y2="272.48" xlink:href="#Crack_Highlight_Gradient"/><linearGradient id="Crack_Highlight_Gradient-21" x1="1182.22" y1="142.7" x2="1182.22" y2="272.48" xlink:href="#Crack_Highlight_Gradient"/><linearGradient id="Crack_Highlight_Gradient-22" x1="1366.18" y1="142.7" x2="1366.18" y2="272.48" xlink:href="#Crack_Highlight_Gradient"/><linearGradient id="Crack_Highlight_Gradient-23" x1="875.6" y1="142.7" x2="875.6" y2="272.48" xlink:href="#Crack_Highlight_Gradient"/><linearGradient id="Crack_Highlight_Gradient-24" x1="906.25" y1="142.69" x2="906.25" y2="272.48" xlink:href="#Crack_Highlight_Gradient"/><linearGradient id="Crack_Highlight_Gradient-25" x1="740.66" y1="142.7" x2="740.66" y2="272.48" xlink:href="#Crack_Highlight_Gradient"/><linearGradient id="Crack_Highlight_Gradient-26" x1="808.15" y1="142.7" x2="808.15" y2="272.48" xlink:href="#Crack_Highlight_Gradient"/><linearGradient id="Crack_Highlight_Gradient-27" x1="961.46" y1="142.7" x2="961.46" y2="272.48" xlink:href="#Crack_Highlight_Gradient"/><linearGradient id="Crack_Highlight_Gradient-28" x1="575.1" y1="142.7" x2="575.1" y2="272.48" xlink:href="#Crack_Highlight_Gradient"/><linearGradient id="Crack_Highlight_Gradient-29" x1="621.08" y1="142.7" x2="621.08" y2="272.48" xlink:href="#Crack_Highlight_Gradient"/><linearGradient id="Crack_Highlight_Gradient-30" x1="676.28" y1="142.7" x2="676.28" y2="272.48" xlink:href="#Crack_Highlight_Gradient"/><linearGradient id="Crack_Highlight_Gradient-31" x1="507.64" y1="142.7" x2="507.64" y2="272.48" xlink:href="#Crack_Highlight_Gradient"/><linearGradient id="Crack_Highlight_Gradient-32" x1="538.31" y1="142.7" x2="538.31" y2="272.48" xlink:href="#Crack_Highlight_Gradient"/><linearGradient id="Crack_Highlight_Gradient-33" x1="409.53" y1="142.7" x2="409.53" y2="272.48" xlink:href="#Crack_Highlight_Gradient"/><linearGradient id="Crack_Highlight_Gradient-34" x1="440.19" y1="142.7" x2="440.19" y2="272.48" xlink:href="#Crack_Highlight_Gradient"/><linearGradient id="Crack_Highlight_Gradient-35" x1="335.94" y1="142.7" x2="335.94" y2="272.48" xlink:href="#Crack_Highlight_Gradient"/><linearGradient id="Crack_Highlight_Gradient-36" x1="366.6" y1="142.7" x2="366.6" y2="272.48" xlink:href="#Crack_Highlight_Gradient"/><linearGradient id="Crack_Highlight_Gradient-37" x1="1007.66" y1="142.95" x2="1007.66" y2="272.08" xlink:href="#Crack_Highlight_Gradient"/><linearGradient id="Crack_Highlight_Gradient-38" x1="476.46" y1="142.7" x2="476.46" y2="272.48" xlink:href="#Crack_Highlight_Gradient"/><linearGradient id="Crack_Highlight_Gradient-39" x1="190.12" y1="142.7" x2="190.12" y2="272.48" xlink:href="#Crack_Highlight_Gradient"/><linearGradient id="Crack_Highlight_Gradient-40" x1="296.66" y1="142.7" x2="296.66" y2="272.48" xlink:href="#Crack_Highlight_Gradient"/><linearGradient id="Crack_Highlight_Gradient-41" x1="315.81" y1="142.7" x2="315.81" y2="272.48" xlink:href="#Crack_Highlight_Gradient"/><linearGradient id="Crack_Highlight_Gradient-42" x1="277.82" y1="142.7" x2="277.82" y2="272.48" xlink:href="#Crack_Highlight_Gradient"/><linearGradient id="Crack_Highlight_Gradient-43" x1="394.55" y1="142.7" x2="394.55" y2="272.48" xlink:href="#Crack_Highlight_Gradient"/><linearGradient id="Crack_Highlight_Gradient-44" x1="466.53" y1="142.7" x2="466.53" y2="272.48" xlink:href="#Crack_Highlight_Gradient"/><linearGradient id="Crack_Highlight_Gradient-45" x1="535.61" y1="142.7" x2="535.61" y2="272.48" xlink:href="#Crack_Highlight_Gradient"/><linearGradient id="Crack_Highlight_Gradient-46" x1="586.05" y1="142.7" x2="586.05" y2="272.48" xlink:href="#Crack_Highlight_Gradient"/><linearGradient id="Crack_Highlight_Gradient-47" x1="742.56" y1="142.7" x2="742.56" y2="272.48" xlink:href="#Crack_Highlight_Gradient"/><linearGradient id="Crack_Highlight_Gradient-48" x1="864.48" y1="142.7" x2="864.48" y2="272.48" xlink:href="#Crack_Highlight_Gradient"/><linearGradient id="Crack_Highlight_Gradient-49" x1="916.01" y1="142.7" x2="916.01" y2="272.48" xlink:href="#Crack_Highlight_Gradient"/><linearGradient id="Crack_Highlight_Gradient-50" x1="1288.32" y1="142.7" x2="1288.32" y2="272.48" xlink:href="#Crack_Highlight_Gradient"/><linearGradient id="Crack_Highlight_Gradient-51" x1="1377.79" y1="142.7" x2="1377.79" y2="272.48" xlink:href="#Crack_Highlight_Gradient"/><linearGradient id="Crack_Highlight_Gradient-52" x1="1200.48" y1="142.65" x2="1200.48" y2="271.85" xlink:href="#Crack_Highlight_Gradient"/><linearGradient id="Crack_Highlight_Gradient-53" x1="1198.85" y1="142.7" x2="1198.85" y2="272.48" xlink:href="#Crack_Highlight_Gradient"/><linearGradient id="Crack_Highlight_Gradient-54" x1="1236.37" y1="142.7" x2="1236.37" y2="272.48" xlink:href="#Crack_Highlight_Gradient"/><linearGradient id="Crack_Highlight_Gradient-55" x1="885.58" y1="142.84" x2="885.58" y2="272.04" xlink:href="#Crack_Highlight_Gradient"/><linearGradient id="Crack_Highlight_Gradient-56" x1="1034.34" y1="142.7" x2="1034.34" y2="272.47" xlink:href="#Crack_Highlight_Gradient"/><linearGradient id="Crack_Highlight_Gradient-57" x1="1056.93" y1="142.7" x2="1056.93" y2="272.47" xlink:href="#Crack_Highlight_Gradient"/><linearGradient id="Crack_Highlight_Gradient-58" x1="1074.75" y1="142.7" x2="1074.75" y2="272.47" xlink:href="#Crack_Highlight_Gradient"/><linearGradient id="Crack_Highlight_Gradient-59" x1="1074.41" y1="142.7" x2="1074.41" y2="272.48" xlink:href="#Crack_Highlight_Gradient"/><linearGradient id="Crack_Highlight_Gradient-60" x1="1042.23" y1="142.7" x2="1042.23" y2="272.48" xlink:href="#Crack_Highlight_Gradient"/><linearGradient id="Crack_Highlight_Gradient-61" x1="664.89" y1="142.7" x2="664.89" y2="272.48" xlink:href="#Crack_Highlight_Gradient"/><linearGradient id="Crack_Highlight_Gradient-62" x1="803.46" y1="142.7" x2="803.46" y2="272.48" xlink:href="#Crack_Highlight_Gradient"/><linearGradient id="Crack_Highlight_Gradient-63" x1="970.8" y1="142.7" x2="970.8" y2="272.48" xlink:href="#Crack_Highlight_Gradient"/><linearGradient id="Crack_Highlight_Gradient-64" x1="156.03" y1="142.7" x2="156.03" y2="272.48" xlink:href="#Crack_Highlight_Gradient"/><linearGradient id="Crack_Highlight_Gradient-65" x1="206.58" y1="142.7" x2="206.58" y2="272.48" xlink:href="#Crack_Highlight_Gradient"/><linearGradient id="Crack_Highlight_Gradient-66" x1="260.1" y1="142.7" x2="260.1" y2="272.48" xlink:href="#Crack_Highlight_Gradient"/><linearGradient id="Crack_Highlight_Gradient-67" x1="1211.59" y1="142.7" x2="1211.59" y2="272.48" xlink:href="#Crack_Highlight_Gradient"/><linearGradient id="Crack_Highlight_Gradient-68" x1="1250.25" y1="142.7" x2="1250.25" y2="272.48" xlink:href="#Crack_Highlight_Gradient"/><linearGradient id="Crack_Highlight_Gradient-69" x1="1155.1" y1="142.7" x2="1155.1" y2="272.48" xlink:href="#Crack_Highlight_Gradient"/><linearGradient id="Crack_Highlight_Gradient-70" x1="661.49" y1="142.7" x2="661.49" y2="272.48" xlink:href="#Crack_Highlight_Gradient"/><linearGradient id="Crack_Highlight_Gradient-71" x1="771.38" y1="142.7" x2="771.38" y2="272.48" xlink:href="#Crack_Highlight_Gradient"/><linearGradient id="Crack_Highlight_Gradient-72" x1="920.2" y1="142.7" x2="920.2" y2="272.48" xlink:href="#Crack_Highlight_Gradient"/><linearGradient id="Crack_Highlight_Gradient-73" x1="1065.09" y1="142.7" x2="1065.09" y2="272.48" xlink:href="#Crack_Highlight_Gradient"/></defs><path d="M1381.75,191.29l23.35-38.72L1392.15,111H501.74l-4.16,30.35L489.32,111H281.81l-7.14,28.57H257.41l-4.09,15.8L230.42,111H162.79L111.25,276.41l41.07,56.33h67.54l8.26-31.25H255.4l18.29,31.25h921.46l28.2-58.43h25.5L1272.53,228l25.29,104.78h70.11l38.82-56.42ZM780,230.54l.08-19.75H840l.61,19.75Z"/><polygon class="cls-1" points="381.68 274.31 326.45 274.31 350.07 321.24 402.4 321.24 381.68 274.31"/><polygon class="cls-2" points="400.09 274.31 419.85 321.24 472.18 321.24 455.31 274.31 400.09 274.31"/><polygon class="cls-3" points="565.77 274.31 576.85 321.24 698.97 321.24 694.63 274.31 565.77 274.31"/><polygon class="cls-4" points="841.9 274.31 838.53 321.24 716.41 321.24 713.04 274.31 841.9 274.31"/><polygon class="cls-5" points="860.31 274.31 915.54 274.31 908.31 321.24 855.98 321.24 860.31 274.31"/><polygon class="cls-6" points="933.95 274.31 925.75 321.24 978.09 321.24 989.17 274.31 933.95 274.31"/><polygon class="cls-7" points="1007.58 274.31 995.54 321.24 1047.87 321.24 1062.81 274.31 1007.58 274.31"/><polygon class="cls-8" points="1081.22 274.31 1065.32 321.24 1117.65 321.24 1136.44 274.31 1081.22 274.31"/><polygon class="cls-9" points="1154.85 274.31 1135.1 321.24 1187.43 321.24 1210.08 274.31 1154.85 274.31"/><polygon class="cls-10" points="1338.94 274.31 1309.55 321.24 1361.88 321.24 1394.17 274.31 1338.94 274.31"/><polygon class="cls-11" points="492.13 274.31 507.07 321.24 559.41 321.24 547.36 274.31 492.13 274.31"/><polygon class="cls-10" points="252.82 274.31 308.05 274.31 332.62 321.24 280.29 321.24 252.82 274.31"/><polygon class="cls-10" points="158.17 321.24 123.95 274.31 179.18 274.31 210.5 321.24 158.17 321.24"/><path class="cls-12" d="M268.7,210.79H250.85L242.76,242H206.51l8.64-31.25H197.3l-18.12,63.52H124l47.3-151.83h51.23l-8.15,28.57h17.33l-8.13,29.43H258.7l7.62-29.43h17.32l7.15-28.57H342l-34,151.83H252.82Zm90.4-88.31h51.23L381.68,274.31H326.45Zm222,0H700.63l-1.13,28.57H630.19L628,180.48h70.35l-1.2,30.31H625.73L623.4,242h72.5l-1.27,32.27H565.77Zm136.61,0H837.24l.88,28.57H768.81l-.4,91h72.5l1,32.27H713Zm211.51,88.31H911.36l4.18,63.52H860.31l-6-151.83H973.85l5.85,58H962.12l1.38,15h17.72l7.95,78.79H934Zm-21.79-59.74,1.94,29.43H927l-2.2-29.43Zm220.12-28.57h119.53l6.9,28.57h-69.31l6.07,29.43h70.34l7.32,30.31H1197l13.1,63.52h-55.23ZM1306,151.05H1271.3l-7.15-28.57h119.54l8.9,28.57h-34.66l36.24,123.26h-55.23ZM498.66,226.3h-18l4.45-30.78H467.41l-12.1,78.79H400.09L427.4,122.48h51.23l-4.39,28.57h17.33l-4.26,29.43H504.9l7.88-58H564L547.36,274.31H492.13Zm611.8-103.82H990.93l16.65,151.83h55.23l-6.53-48h18l7,48h55.22ZM1070.2,178H1079l4.17,27.69h-11.87l-1.47-10.16h-17.72l1.38,10.16H1041.6L1038,178h8.78l-1-7.42h-20.41l-2.43-19.52H1046l2.32,17.06h17.48l-2.47-17.06h23.1l3.06,19.52h-20.42Z"/><polygon class="cls-13" points="357.56 242.04 351 274.31 344.86 274.31 351.52 242.04 357.56 242.04"/><polygon class="cls-13" points="1042.33 258.02 1044.4 274.31 1038.26 274.31 1036.24 258.02 1042.33 258.02"/><polygon class="cls-14" points="351 274.31 357.95 288.93 351.91 288.93 344.86 274.31 351 274.31"/><polygon class="cls-13" points="427.37 258.02 424.63 274.31 418.5 274.31 421.28 258.02 427.37 258.02"/><polygon class="cls-14" points="528.95 274.31 533 288.93 526.97 288.93 522.81 274.31 528.95 274.31"/><polygon class="cls-14" points="198.38 303.07 195.26 298.41 177.35 298.41 180.56 303.07 198.38 303.07"/><polygon class="cls-14" points="653.73 288.93 659.76 288.93 657.81 274.31 651.68 274.31 653.73 288.93"/><polygon class="cls-14" points="1320.93 303.07 1323.85 298.41 1341.76 298.41 1338.74 303.07 1320.93 303.07"/><polygon class="cls-13" points="1017.26 200.59 1016.66 195.52 998.94 195.52 999.49 200.59 1017.26 200.59"/><polygon class="cls-13" points="300.92 175.51 307.9 146.23 284.85 146.23 283.64 151.05 300.97 151.05 295.07 175.51 259.98 175.51 258.7 180.48 329.04 180.48 330.15 175.51 300.92 175.51"/><polygon class="cls-13" points="1355.22 122.48 1349.53 122.48 1357.93 151.05 1363.71 151.05 1355.22 122.48"/><polygon class="cls-13" points="1225.9 180.48 1220.04 180.48 1226.73 210.79 1232.68 210.79 1225.9 180.48"/><polygon class="cls-13" points="913.41 242.04 913.07 236.76 888.96 236.76 890.99 274.31 897.13 274.31 895.29 242.04 913.41 242.04"/><polygon class="cls-13" points="163.85 146.23 215.71 146.23 214.34 151.05 162.35 151.05 163.85 146.23"/><polygon class="cls-13" points="407.79 231.52 408.73 226.3 462.69 226.3 461.89 231.52 407.79 231.52"/><polygon class="cls-13" points="1327.49 231.52 1326.09 226.3 1380.05 226.3 1381.59 231.52 1327.49 231.52"/><polygon class="cls-13" points="1077.31 247.34 1076.54 242.04 1130.92 242.04 1131.83 247.34 1077.31 247.34"/><polygon class="cls-13" points="534.64 226.3 498.66 226.3 497.95 231.52 528.01 231.52 522.81 274.31 528.95 274.31 534.64 226.3"/><polygon class="cls-13" points="891.78 180.48 891.49 175.51 879.8 175.51 877.08 122.48 871.39 122.48 873.24 160.76 855.83 160.76 856.02 165.66 873.48 165.66 874.19 180.48 891.78 180.48"/><polygon class="cls-13" points="891.78 180.48 891.49 175.51 879.8 175.51 877.08 122.48 871.39 122.48 873.24 160.76 855.83 160.76 856.02 165.66 873.48 165.66 874.19 180.48 891.78 180.48"/><polygon class="cls-13" points="188.38 242.04 189.89 236.76 159.76 236.76 167.54 210.79 143.74 210.79 142.14 215.94 160.04 215.94 147.29 258.02 153.38 258.02 183.82 258.02 185.35 252.67 154.99 252.67 158.18 242.04 188.38 242.04"/><polygon class="cls-13" points="1219.32 151.05 1215.03 131.91 1186.43 131.91 1184.46 122.48 1178.77 122.48 1181.69 136.66 1210.36 136.66 1213.54 151.05 1219.32 151.05"/><polygon class="cls-13" points="577.23 160.76 594.64 160.76 594.19 165.66 576.73 165.66 577.23 160.76"/><polygon class="cls-13" points="569.56 236.76 569.02 242.04 587.15 242.04 584.18 274.31 590.31 274.31 593.66 236.76 569.56 236.76"/><polygon class="cls-13" points="474.98 146.23 457.7 146.23 456.92 151.05 474.24 151.05 474.98 146.23"/><polygon class="cls-13" points="561.41 146.23 509.55 146.23 508.9 151.05 560.88 151.05 561.41 146.23"/><polygon class="cls-14" points="1044.4 274.31 1038.26 274.31 1029.89 303.07 1035.84 303.07 1044.4 274.31"/><polygon class="cls-13" points="931.14 236.76 931.54 242.04 949.66 242.04 949.23 236.76 931.14 236.76"/><polygon class="cls-13" points="716.38 165.66 716.23 170.57 733.72 170.57 732.5 226.3 714.51 226.3 714.35 231.52 738.4 231.52 739.56 170.57 768.72 170.57 768.74 165.66 716.38 165.66"/><polygon class="cls-13" points="1173.21 242.04 1167.23 210.79 1143.43 210.79 1144.35 215.94 1162.25 215.94 1167.17 242.04 1173.21 242.04"/><polygon class="cls-13" points="774.4 274.31 768.27 274.31 768.33 260.71 774.42 260.71 774.4 274.31"/><polygon class="cls-14" points="774.45 288.93 768.41 288.93 768.27 274.31 774.4 274.31 774.45 288.93"/><polygon class="cls-14" points="895.18 288.93 889.14 288.93 890.99 274.31 897.13 274.31 895.18 288.93"/><polygon class="cls-13" points="382.8 146.23 378.9 165.66 384.72 165.66 387.61 151.05 404.93 151.05 405.84 146.23 382.8 146.23"/><polygon class="cls-13" points="671.74 242.04 671.19 252.67 652.97 252.67 651.68 274.31 657.81 274.31 658.74 258.02 677.01 258.02 677.78 242.04 671.74 242.04"/><polygon class="cls-14" points="424.63 274.31 435.95 303.07 430.01 303.07 418.5 274.31 424.63 274.31"/><polygon class="cls-15" points="167.54 210.79 166.77 213.36 142.94 213.36 143.74 210.79 167.54 210.79"/><polygon class="cls-15" points="159.76 236.76 161.98 239.41 189.14 239.4 189.89 236.76 159.76 236.76"/><polygon class="cls-15" points="154.99 252.67 157.23 255.34 184.59 255.34 185.35 252.67 154.99 252.67"/><polygon class="cls-15" points="163.85 146.23 215.71 146.23 215.02 148.64 163.1 148.64 163.85 146.23"/><polygon class="cls-15" points="284.85 146.23 284.25 148.64 307.32 148.64 307.9 146.23 284.85 146.23"/><polygon class="cls-15" points="300.97 151.05 303.28 153.47 297.4 177.99 259.34 177.99 259.98 175.51 295.07 175.51 300.97 151.05"/><polygon class="cls-15" points="300.92 175.51 303.25 177.99 329.6 177.99 330.15 175.51 300.92 175.51"/><polygon class="cls-15" points="160.04 215.94 162.24 218.51 150.34 258.02 147.29 258.02 160.04 215.94"/><polygon class="cls-15" points="378.9 165.66 381.81 165.66 385.2 148.64 405.39 148.64 405.84 146.23 382.8 146.23 378.9 165.66"/><polygon class="cls-15" points="357.56 242.04 357.02 244.69 354 244.69 347.93 274.31 344.86 274.31 351.52 242.04 357.56 242.04"/><polygon class="cls-15" points="456.92 151.05 459.8 151.05 460.19 148.64 474.61 148.64 474.98 146.23 457.7 146.23 456.92 151.05"/><polygon class="cls-15" points="509.55 146.23 561.41 146.23 561.14 148.64 509.23 148.64 509.55 146.23"/><polygon class="cls-15" points="408.73 226.3 462.69 226.3 462.29 228.9 408.26 228.9 408.73 226.3"/><polygon class="cls-15" points="427.37 258.02 421.28 258.02 418.5 274.31 421.56 274.31 423.87 260.71 426.92 260.71 427.37 258.02"/><polygon class="cls-15" points="498.66 226.3 498.31 228.9 534.33 228.9 534.64 226.3 498.66 226.3"/><polygon class="cls-15" points="528.01 231.52 530.7 234.14 525.88 274.31 522.81 274.31 528.01 231.52"/><polygon class="cls-15" points="577.23 160.76 576.98 163.21 594.41 163.21 594.64 160.76 577.23 160.76"/><polygon class="cls-15" points="569.56 236.76 569.29 239.4 593.43 239.4 593.66 236.76 569.56 236.76"/><polygon class="cls-15" points="587.15 242.04 589.93 244.69 587.24 274.31 584.18 274.31 587.15 242.04"/><polygon class="cls-15" points="674.76 242.04 671.74 242.04 671.19 252.67 652.97 252.67 651.68 274.31 654.74 274.31 655.85 255.34 674.1 255.34 674.76 242.04"/><polygon class="cls-15" points="716.3 168.11 768.73 168.11 768.74 165.66 716.38 165.66 716.3 168.11"/><polygon class="cls-15" points="733.72 170.57 736.59 173.04 735.45 228.9 714.43 228.9 714.51 226.3 732.5 226.3 733.72 170.57"/><polygon class="cls-15" points="873.24 160.76 855.83 160.76 855.92 163.21 870.45 163.21 873.24 160.76"/><polygon class="cls-15" points="891.78 180.48 891.49 175.51 879.8 175.51 877.08 122.48 874.24 122.48 877 177.99 888.71 177.99 888.85 180.48 891.78 180.48"/><polygon class="cls-15" points="913.24 239.4 913.07 236.76 888.96 236.76 889.1 239.4 913.24 239.4"/><polygon class="cls-15" points="895.29 242.04 892.41 244.69 894.06 274.31 897.13 274.31 895.29 242.04"/><polyline class="cls-15" points="931.14 236.76 931.34 239.4 946.43 239.4 946.64 242.04 949.66 242.04 949.23 236.76 931.14 236.76"/><polygon class="cls-15" points="999.22 198.05 998.94 195.52 1016.66 195.52 1017.26 200.59 1014.3 200.59 1014 198.05 999.22 198.05"/><polygon class="cls-15" points="1076.54 242.04 1130.92 242.04 1131.38 244.69 1076.93 244.69 1076.54 242.04"/><polygon class="cls-15" points="1036.57 260.71 1039.62 260.71 1041.33 274.31 1044.4 274.31 1042.33 258.02 1036.24 258.02 1036.57 260.71"/><polygon class="cls-15" points="1143.89 213.36 1164.74 213.36 1170.19 242.04 1173.21 242.04 1167.23 210.79 1143.43 210.79 1143.89 213.36"/><polygon class="cls-15" points="1184.46 122.48 1181.61 122.48 1184.07 134.28 1212.7 134.28 1216.43 151.05 1219.32 151.05 1215.03 131.91 1186.43 131.91 1184.46 122.48"/><polygon class="cls-15" points="1225.9 180.48 1222.97 180.48 1229.71 210.79 1232.68 210.79 1225.9 180.48"/><polygon class="cls-15" points="1326.09 226.3 1380.05 226.3 1380.82 228.9 1326.79 228.9 1326.09 226.3"/><polygon class="cls-15" points="1352.38 122.48 1360.82 151.05 1363.71 151.05 1355.22 122.48 1352.38 122.48"/><polygon class="cls-15" points="768.34 258.02 768.33 260.71 774.42 260.71 774.43 258.02 768.34 258.02"/><polygon class="cls-16" points="347.93 274.31 344.86 274.31 351.91 288.93 357.95 288.93 356.81 286.52 353.78 286.52 347.93 274.31"/><polygon class="cls-16" points="525.88 274.31 529.31 286.52 532.34 286.52 533 288.93 526.97 288.93 522.81 274.31 525.88 274.31"/><polygon class="cls-16" points="654.74 274.31 656.42 286.52 659.44 286.52 659.76 288.93 653.73 288.93 651.68 274.31 654.74 274.31"/><polygon class="cls-16" points="1041.33 274.31 1033.55 300.75 1030.57 300.75 1029.89 303.07 1035.84 303.07 1044.4 274.31 1041.33 274.31"/><polygon class="cls-16" points="1322.38 300.75 1337.27 300.75 1338.78 298.41 1341.76 298.41 1338.74 303.07 1320.93 303.07 1322.38 300.75"/><polygon class="cls-16" points="177.35 298.41 180.56 303.07 198.38 303.07 196.82 300.75 181.94 300.75 180.34 298.41 177.35 298.41"/><polygon class="cls-16" points="894.06 274.31 892.47 286.52 889.45 286.52 889.14 288.93 895.18 288.93 897.13 274.31 894.06 274.31"/><polygon class="cls-16" points="768.39 286.52 768.41 288.93 774.45 288.93 774.44 286.52 768.39 286.52"/><polygon class="cls-16" points="421.56 274.31 418.5 274.31 430.01 303.07 435.95 303.07 435.04 300.75 432.06 300.75 421.56 274.31"/><polygon class="cls-15" points="180.56 303.07 182.15 305.39 199.92 305.39 198.38 303.07 180.56 303.07"/><polygon class="cls-15" points="351.91 288.93 353.07 291.32 359.09 291.31 357.95 288.93 351.91 288.93"/><polygon class="cls-15" points="526.97 288.93 527.64 291.31 533.66 291.31 533 288.93 526.97 288.93"/><polygon class="cls-15" points="653.73 288.93 654.06 291.31 660.08 291.31 659.76 288.93 653.73 288.93"/><polygon class="cls-15" points="1029.89 303.07 1029.22 305.38 1035.15 305.38 1035.84 303.07 1029.89 303.07"/><polygon class="cls-15" points="1320.93 303.07 1319.48 305.39 1337.25 305.39 1338.74 303.07 1320.93 303.07"/><polygon class="cls-15" points="768.41 288.93 768.44 291.31 774.46 291.32 774.45 288.93 768.41 288.93"/><polygon class="cls-15" points="895.18 288.93 894.86 291.31 888.84 291.32 889.14 288.93 895.18 288.93"/><polygon class="cls-17" points="732.56 223.7 714.59 223.7 714.51 226.3 732.5 226.3 732.56 223.7"/><polygon class="cls-18" points="408.73 226.3 462.69 226.3 463.09 223.7 409.19 223.7 408.73 226.3"/><polygon class="cls-19" points="534.95 223.7 481.05 223.7 480.68 226.3 534.64 226.3 534.95 223.7"/><polygon class="cls-20" points="1379.29 223.7 1325.39 223.7 1326.09 226.3 1380.05 226.3 1379.29 223.7"/><polygon class="cls-21" points="123.95 274.31 179.18 274.31 179.97 271.54 124.82 271.54 123.95 274.31"/><polygon class="cls-22" points="154.99 252.67 185.35 252.67 186.11 250 155.79 250 154.99 252.67"/><polygon class="cls-23" points="159.76 236.76 189.89 236.76 190.64 234.14 160.54 234.14 159.76 236.76"/><polygon class="cls-24" points="206.51 242.04 242.76 242.04 243.44 239.4 207.24 239.4 206.51 242.04"/><polygon class="cls-25" points="252.82 274.31 308.05 274.31 308.67 271.54 253.51 271.54 252.82 274.31"/><polygon class="cls-26" points="358.1 239.4 352.06 239.4 351.52 242.04 357.56 242.04 358.1 239.4"/><polygon class="cls-27" points="427.82 255.34 421.74 255.34 421.28 258.02 427.37 258.02 427.82 255.34"/><polygon class="cls-28" points="593.9 234.14 569.82 234.14 569.56 236.76 593.66 236.76 593.9 234.14"/><polygon class="cls-29" points="671.33 250 653.13 250 652.97 252.67 671.19 252.67 671.33 250"/><polygon class="cls-30" points="888.96 236.76 913.07 236.76 912.89 234.14 888.82 234.14 888.96 236.76"/><polygon class="cls-31" points="949.01 234.14 930.95 234.14 931.14 236.76 949.23 236.76 949.01 234.14"/><polygon class="cls-32" points="1035.9 255.34 1036.24 258.02 1042.33 258.02 1041.99 255.34 1035.9 255.34"/><polygon class="cls-33" points="1130.47 239.4 1076.16 239.4 1076.54 242.04 1130.92 242.04 1130.47 239.4"/><polygon class="cls-34" points="1007.28 271.54 1007.58 274.31 1038.26 274.31 1037.92 271.54 1007.28 271.54"/><polygon class="cls-35" points="1044.06 271.54 1044.4 274.31 1062.81 274.31 1062.43 271.54 1044.06 271.54"/><polygon class="cls-36" points="1080.82 271.54 1081.22 274.31 1136.44 274.31 1135.97 271.54 1080.82 271.54"/><polygon class="cls-37" points="1154.35 271.54 1154.85 274.31 1210.08 274.31 1209.51 271.54 1154.35 271.54"/><polygon class="cls-38" points="1393.35 271.54 1338.2 271.54 1338.94 274.31 1394.17 274.31 1393.35 271.54"/><polygon class="cls-39" points="860.2 271.54 860.31 274.31 890.99 274.31 890.84 271.54 860.2 271.54"/><polygon class="cls-40" points="896.97 271.54 897.13 274.31 915.54 274.31 915.35 271.54 896.97 271.54"/><polygon class="cls-41" points="713.04 274.31 768.27 274.31 768.28 271.54 713.12 271.54 713.04 274.31"/><polygon class="cls-42" points="774.41 271.54 774.4 274.31 841.9 274.31 841.82 271.54 774.41 271.54"/><polygon class="cls-43" points="933.74 271.54 933.95 274.31 989.17 274.31 988.89 271.54 933.74 271.54"/><polygon class="cls-44" points="565.77 274.31 584.18 274.31 584.43 271.54 566.05 271.54 565.77 274.31"/><polygon class="cls-45" points="590.31 274.31 651.68 274.31 651.84 271.54 590.56 271.54 590.31 274.31"/><polygon class="cls-46" points="657.81 274.31 694.63 274.31 694.74 271.54 657.97 271.54 657.81 274.31"/><polygon class="cls-47" points="492.13 274.31 522.81 274.31 523.15 271.54 492.51 271.54 492.13 274.31"/><polygon class="cls-48" points="528.95 274.31 547.36 274.31 547.66 271.54 529.28 271.54 528.95 274.31"/><polygon class="cls-49" points="400.09 274.31 418.5 274.31 418.97 271.54 400.59 271.54 400.09 274.31"/><polygon class="cls-50" points="424.63 274.31 455.31 274.31 455.74 271.54 425.1 271.54 424.63 274.31"/><polygon class="cls-51" points="326.45 274.31 344.86 274.31 345.43 271.54 327.05 271.54 326.45 274.31"/><polygon class="cls-52" points="351 274.31 381.68 274.31 382.2 271.54 351.56 271.54 351 274.31"/><polygon class="cls-53" points="1016.36 193 998.66 193 998.94 195.52 1016.66 195.52 1016.36 193"/><polygon class="cls-54" points="485.5 193 467.8 193 467.41 195.52 485.13 195.52 485.5 193"/><polygon class="cls-55" points="216.39 143.83 164.6 143.83 163.85 146.23 215.71 146.23 216.39 143.83"/><polygon class="cls-56" points="308.47 143.83 285.45 143.83 284.85 146.23 307.9 146.23 308.47 143.83"/><polygon class="cls-57" points="300.92 175.51 330.15 175.51 330.71 173.04 301.5 173.04 300.92 175.51"/><polygon class="cls-58" points="295.67 173.04 260.62 173.04 259.98 175.51 295.07 175.51 295.67 173.04"/><polygon class="cls-59" points="406.3 143.83 383.28 143.83 382.8 146.23 405.84 146.23 406.3 143.83"/><polygon class="cls-60" points="475.35 143.83 458.09 143.83 457.7 146.23 474.98 146.23 475.35 143.83"/><polygon class="cls-61" points="509.55 146.23 561.41 146.23 561.67 143.83 509.88 143.83 509.55 146.23"/><polygon class="cls-62" points="594.86 158.33 577.47 158.33 577.23 160.76 594.64 160.76 594.86 158.33"/><polygon class="cls-63" points="768.75 163.21 716.45 163.21 716.38 165.66 768.74 165.66 768.75 163.21"/><polygon class="cls-64" points="873.12 158.33 855.73 158.33 855.83 160.76 873.24 160.76 873.12 158.33"/><polygon class="cls-65" points="924.75 151.05 924.57 148.64 907.27 148.64 907.42 151.05 924.75 151.05"/><polygon class="cls-66" points="1270.69 148.64 1271.3 151.05 1305.95 151.05 1305.31 148.64 1270.69 148.64"/><polygon class="cls-67" points="1392.59 151.05 1391.84 148.64 1362.99 148.64 1363.71 151.05 1392.59 151.05"/><polygon class="cls-68" points="1215.03 131.91 1214.5 129.55 1185.94 129.55 1186.43 131.91 1215.03 131.91"/><polygon class="cls-69" points="1213.54 151.05 1213.01 148.64 1184.16 148.64 1184.66 151.05 1213.54 151.05"/><polygon class="cls-70" points="1253.97 151.05 1253.39 148.64 1218.78 148.64 1219.32 151.05 1253.97 151.05"/><polygon class="cls-71" points="891.49 175.51 891.35 173.04 879.67 173.04 879.8 175.51 891.49 175.51"/><polygon class="cls-72" points="1046.04 151.05 1045.71 148.64 1022.64 148.64 1022.94 151.05 1046.04 151.05"/><polygon class="cls-73" points="1065.84 168.11 1065.48 165.66 1048.03 165.66 1048.36 168.11 1065.84 168.11"/><polygon class="cls-74" points="1086.47 151.05 1086.1 148.64 1063.02 148.64 1063.37 151.05 1086.47 151.05"/><polygon class="cls-75" points="1070.2 177.99 1078.98 177.99 1078.61 175.51 1069.84 175.51 1070.2 177.99"/><polygon class="cls-76" points="1038 177.99 1046.78 177.99 1046.45 175.51 1037.67 175.51 1038 177.99"/><polygon class="cls-77" points="630.19 151.05 699.5 151.05 699.59 148.64 630.37 148.64 630.19 151.05"/><polygon class="cls-78" points="838.04 148.64 768.82 148.64 768.81 151.05 838.12 151.05 838.04 148.64"/><polygon class="cls-79" points="979.7 180.48 979.45 177.99 961.89 177.99 962.12 180.48 979.7 180.48"/><polygon class="cls-80" points="168.31 208.23 144.54 208.23 143.74 210.79 167.54 210.79 168.31 208.23"/><polygon class="cls-81" points="215.86 208.23 198.03 208.23 197.3 210.79 215.15 210.79 215.86 208.23"/><polygon class="cls-82" points="269.34 208.23 251.51 208.23 250.85 210.79 268.7 210.79 269.34 208.23"/><polygon class="cls-83" points="1196.45 208.23 1196.98 210.79 1226.73 210.79 1226.17 208.23 1196.45 208.23"/><polygon class="cls-84" points="1232.11 208.23 1232.68 210.79 1268.39 210.79 1267.77 208.23 1232.11 208.23"/><polygon class="cls-85" points="1166.74 208.23 1142.96 208.23 1143.43 210.79 1167.23 210.79 1166.74 208.23"/><polygon class="cls-86" points="625.73 210.79 697.14 210.79 697.24 208.23 625.92 208.23 625.73 210.79"/><polygon class="cls-87" points="774.43 255.34 768.35 255.34 768.34 258.02 774.43 258.02 774.43 255.34"/><polygon class="cls-88" points="911.19 208.23 911.36 210.79 929.21 210.79 929.02 208.23 911.19 208.23"/><polygon class="cls-89" points="1055.92 223.7 1056.28 226.3 1074.27 226.3 1073.89 223.7 1055.92 223.7"/><polygon class="cls-15" points="430.01 303.07 430.94 305.39 436.86 305.38 435.95 303.07 430.01 303.07"/><polygon class="cls-10" points="198.38 303.07 199.92 305.39 203.4 292.58 201.87 290.25 198.38 303.07"/><polygon class="cls-10" points="1320.93 303.07 1319.48 305.39 1316 291.73 1317.43 289.39 1320.93 303.07"/><polygon class="cls-14" points="590.31 274.31 598.97 315.78 593.12 315.78 584.18 274.31 590.31 274.31"/><polygon class="cls-16" points="587.24 274.31 596.04 315.78 593.12 315.78 584.18 274.31 587.24 274.31"/><polygon points="790.78 364.7 790.71 343.55 779.77 343.55 779.79 338.65 790.5 338.65 790.64 321.22 790.57 300.66 763.67 300.66 763.64 311.18 752.78 311.18 752.68 321.89 747.83 321.89 747.89 318.11 747.16 300.66 720.53 300.66 720.28 311.18 711.58 311.18 710.69 300.66 662.88 300.66 662.34 311.18 643.33 311.18 641.61 300.66 594.41 300.66 593.53 311.18 575.12 311.18 572.57 300.66 515.13 300.66 513.86 311.18 506.95 311.18 503.56 300.66 378.16 300.66 375.7 313.91 374.4 311.18 370.7 311.18 365.63 300.66 309.66 300.66 295.52 365.76 304.95 381.76 361.33 381.76 363.41 370.87 368.76 370.87 374.24 381.76 500.79 381.76 502.18 370.87 509.14 370.87 512.71 381.76 537.59 381.76 540.01 359.99 552.33 359.99 551.8 365.23 556.3 381.76 581.45 381.76 582.45 370.87 590.33 370.87 592.8 381.76 640.27 381.76 640.98 370.87 660.41 370.87 661.92 381.76 710.02 381.76 710.39 370.87 719.39 370.87 720.1 381.76 746.83 381.76 747.19 359.99 752.55 359.99 752.8 370.87 763.5 370.87 763.61 381.76 790.63 381.76 790.78 364.7"/><polygon points="1245.28 300.66 1221.94 300.66 1216.49 311.18 1204.27 311.18 1202.2 300.66 1178.51 300.66 1173.58 311.18 1167.95 311.18 1166.06 300.66 1120.45 300.66 1116.22 311.18 1109.91 311.18 1108.3 300.66 945.95 300.66 943.83 311.18 935.96 311.18 935.21 300.66 807.78 300.66 807.05 318.11 808.11 381.76 936.58 381.76 938.69 370.87 946.74 370.87 947.61 381.76 994.81 381.76 999.23 365.23 997.1 343.55 990.92 343.55 990.43 338.65 1012.55 338.65 1017.36 381.76 1042.24 381.76 1047.62 365.33 1044.4 338.65 1067.54 338.65 1068.2 343.55 1062.27 360.05 1065.16 381.76 1111.45 381.76 1115.97 370.87 1122.23 370.87 1123.97 381.76 1169.86 381.76 1175.18 370.87 1180.66 370.87 1182.7 381.76 1206.41 381.76 1212.24 370.87 1224.38 370.87 1226.63 381.76 1249.99 381.76 1259.43 365.76 1245.28 300.66"/><path class="cls-10" d="M314.62,306.81h47.15l5.06,10.52h3.69l5.39,11.29-2.7,14.46h-4.69l3.4,6.89-2.75,14.75H358.33l-2.09,10.89H308.46L302,364.72Z"/><path class="cls-10" d="M383.27,306.81h57.91l4.42,11.38-2.21,14.31H417.93l2.9,6.74L419.1,349.7h15.31l4.6,11-2.31,14.89H378l-5.47-10.89Z"/><path class="cls-10" d="M451.93,306.81h47.15l3.39,10.52h6l3.56,11.29-4.46,36.1H496.77l-1.4,10.89H447.6l-4.52-10.89Zm14.3,42.89h23.28l2.27-17.2H468.69Z"/><path class="cls-10" d="M559.12,353.84H534.51l-2.43,21.77H517.16l-3.56-10.89,7-57.91h47.15l2.55,10.52h7.22l2.65,11.29-1.33,14.46h-2.3l1.67,6.89-2.35,25.64H561l-3-10.89Z"/><path class="cls-10" d="M588.3,317.33h10.89l.88-10.52h36.31l1.72,10.52h8.39l1.74,11.29-2.17,36.1H635.22l-.71,10.89h-36.8l-2.46-10.89h-7.57l-2.59-11Zm15.42,32.37h25.86l1.17-17.2H605.1Z"/><path class="cls-10" d="M716.31,328.62l-.82-11.29h-9.57L705,306.81H668.72l-.53,10.52H657.3l-2,36.4,1.65,11h8.87l1.51,10.89h36.79l.37-10.89h10.84L715.7,350l-.52-6.89h.71Zm-16.7,21.08H672.47l.83-17.2h27l.59,6.36H700Z"/><path class="cls-10" d="M758.78,328l.09-10.71h10.89l0-10.52h14.64l0,14.43-.09,11.26H773.72l-.09,6.36,0,10.84h11l0,15-.09,10.89H769.7l-.11-10.89H758.81l-.25-10.88H741.15l-.37,21.77H725.86l-.7-10.89,1.38-57.91h14.72l.48,11.38-.16,9.85Z"/><path class="cls-10" d="M813.2,318.19l.48-11.38h57.9l.64,14.43L871,332.5H850.87l.35,10.26-.62,6.94h22.88l.66,15-1.31,10.89H814.16Z"/><path class="cls-10" d="M881,318.19l1.38-11.38h47.15l.75,10.52H941l2.78,36.4-2.24,11h-8l-2.11,10.89H883.72Zm18.51,31.51h26.33l-1.17-17.2H898.5Z"/><path class="cls-10" d="M948.7,318.19,951,306.81H987.3l1.42,14.43-2.8,11.26h-7l1.6,17.2h11l1.48,15-2.91,10.89h-36.8l-1.19-14.89,2.38-11h7.59l-1.46-17.2H949.84Z"/><path class="cls-10" d="M995.14,318.19l2.91-11.38H1056l1.89,14.43-3.72,11.26h-16.66l3.89,32.22-3.57,10.89h-14.92l-4.81-43.11H996.6Z"/><path class="cls-10" d="M1062.89,318.19l3.81-11.38H1103l2.2,14.43-4.34,11.26h-4.82l2.54,17.2h11l2.3,15-4.52,10.89h-36.8l-2-14.89,4-11H1078l-2.38-17.2H1064.8Z"/><path class="cls-10" d="M1111,328.62l4.47-11.29h5l4.22-10.52h36.32l1.89,10.52h10.81l6.73,36.4-5.42,11h-3.59L1166,375.61h-36.8l-1.74-10.89h-10.93Zm24.6,21.08h22l-3-17.2h-21.82Z"/><path class="cls-10" d="M1208.55,364.72l-5.83,10.89H1187.8l-10.71-57.42,5.33-11.38h14.73l2.07,10.52h10.89l2.16,10.71h9.55l-2-9.85,5.9-11.38h14.64l12.59,57.91-6.43,10.89h-14.84l-2.25-10.89h-10.92l-2.2-10.88h-9.86Z"/><path class="cls-90" d="M314.62,306.81h47.15l-2,10.52h10.8l-2.77,14.58H356.87l-1.35,6.95h10.91l-2.83,14.87h-11l-2.14,11H302ZM324.88,328H353.7l1.34-6.8H326.31Zm-4.56,21.66h29.11l1.37-6.94h-29Z"/><path class="cls-90" d="M383.27,306.81h57.91l-2.28,14.43H395.43l-1.22,6.8H416l-2.47,14.72h-22l-1.23,6.94h44.05l-2.38,15H372.56Z"/><path class="cls-90" d="M451.93,306.81h47.15l-1.38,10.52h10.81l-4.57,36.4h-11l-1.43,11H443.08Zm8.46,42.89h29.12l3.77-28.46H464.54Z"/><path class="cls-90" d="M560.24,342.76h-29l-2.5,22H513.6l7-57.91h47.15l-1,10.52H577.5l-1.36,14.58H565.26l-.69,6.95h10.92l-2.42,25.86H558ZM532.89,328h28.82l.68-6.8H533.66Z"/><path class="cls-90" d="M588.3,317.33h10.89l.88-10.52h36.31l-.69,10.52h10.8l-2.22,36.4h-11l-.73,11h-37.3l.91-11H585.09Zm12.16,32.37h29.12l1.93-28.46H602.78Z"/><path class="cls-90" d="M657.3,317.33h10.89l.53-10.52H705l-.36,10.52h10.81l-.43,14.58H700.25l.38-10.67H671.9l-1.4,28.46h29.11l.39-10.84h14.86l-.43,14.87h-11l-.37,11h-37.3l.56-11H655.25Z"/><path class="cls-90" d="M758.78,328l.09-10.71h10.89l0-10.52h14.64l0,14.43H773.66v10.67h-11l0,6.95h11l0,10.84h11l0,15h-15l0-11H758.56l.09-11h-18l-.37,22H725.16l1.38-57.91h14.72L740.9,328Z"/><path class="cls-90" d="M813.68,306.81h57.9l.64,14.43H828.75l.16,6.8h21.8l.51,14.72h-22l.17,6.94h44.05l.66,15H814.66Z"/><path class="cls-90" d="M882.33,306.81h47.15l.75,10.52H941l2.78,36.4h-11l.78,11H885.18Zm17.13,42.89h29.11l-2-28.46H897.87Z"/><path class="cls-90" d="M951,306.81H987.3l1.42,14.43H977.89l2.66,28.46h11l1.48,15H955.7l-1.22-15h11l-2.46-28.46H952.16Z"/><path class="cls-90" d="M998.05,306.81H1056l1.89,14.43H1036.1l5.25,43.48h-15.13l-4.94-43.48H999.54Z"/><path class="cls-90" d="M1066.7,306.81H1103l2.2,14.43H1094.4l4.2,28.46h11l2.3,15h-37.31l-2-15h11.06l-4-28.46h-10.91Z"/><path class="cls-90" d="M1115.43,317.33h10.89l-1.72-10.52h36.32l1.89,10.52h10.81l6.73,36.4h-11l2,11H1134l-1.79-11h-11.08Zm20.13,32.37h29.11l-5.07-28.46h-28.73Z"/><path class="cls-90" d="M1209,331.91h-7l6.46,32.81h-15.12l-11-57.91h14.73l2.07,10.52h10.89l2.16,10.71h10.86l2.24,10.82h7.06l-6.75-32.05h14.64l12.59,57.91h-15l-2.32-11h-11.07l-2.25-11h-11Z"/><polygon class="cls-91" points="326.58 319.94 326.31 321.24 355.04 321.24 355.3 319.94 326.58 319.94"/><polygon class="cls-91" points="322.06 341.43 321.78 342.76 350.8 342.76 351.06 341.43 322.06 341.43"/><polygon class="cls-91" points="352.61 353.73 363.6 353.73 363.86 352.38 352.88 352.38 352.61 353.73"/><polygon class="cls-91" points="302.04 364.72 350.47 364.72 350.73 363.36 302.33 363.36 302.04 364.72"/><polygon class="cls-91" points="356.87 331.91 367.75 331.91 368 330.59 357.13 330.59 356.87 331.91"/><polygon class="cls-91" points="391.59 342.76 413.55 342.76 413.77 341.43 391.83 341.43 391.59 342.76"/><polygon class="cls-91" points="395.43 321.24 438.9 321.24 439.1 319.94 395.66 319.94 395.43 321.24"/><polygon class="cls-91" points="372.56 364.72 432.04 364.72 432.25 363.36 372.81 363.36 372.56 364.72"/><polygon class="cls-91" points="443.08 364.72 491.51 364.72 491.69 363.36 443.29 363.36 443.08 364.72"/><polygon class="cls-91" points="464.74 319.94 464.54 321.24 493.28 321.24 493.45 319.94 464.74 319.94"/><polygon class="cls-91" points="492.94 353.73 503.94 353.73 504.1 352.38 493.12 352.38 492.94 353.73"/><polygon class="cls-91" points="533.81 319.94 533.66 321.24 562.39 321.24 562.52 319.94 533.81 319.94"/><polygon class="cls-91" points="560.37 341.43 531.37 341.43 531.22 342.76 560.24 342.76 560.37 341.43"/><polygon class="cls-91" points="513.6 364.72 528.72 364.72 528.88 363.36 513.76 363.36 513.6 364.72"/><polygon class="cls-91" points="558.03 364.72 573.07 364.72 573.2 363.36 558.17 363.36 558.03 364.72"/><polygon class="cls-91" points="565.26 331.91 576.14 331.91 576.26 330.59 565.39 330.59 565.26 331.91"/><polygon class="cls-91" points="602.89 319.94 602.78 321.24 631.51 321.24 631.6 319.94 602.89 319.94"/><polygon class="cls-91" points="596.27 352.38 585.21 352.38 585.09 353.73 596.16 353.73 596.27 352.38"/><polygon class="cls-91" points="633.28 353.73 644.27 353.73 644.35 352.38 633.37 352.38 633.28 353.73"/><polygon class="cls-91" points="595.25 364.72 632.55 364.72 632.64 363.36 595.36 363.36 595.25 364.72"/><polygon class="cls-91" points="700.68 319.94 671.97 319.94 671.9 321.24 700.63 321.24 700.68 319.94"/><polygon class="cls-91" points="666.4 352.38 655.33 352.38 655.25 353.73 666.33 353.73 666.4 352.38"/><polygon class="cls-91" points="665.77 364.72 703.07 364.72 703.11 363.36 665.84 363.36 665.77 364.72"/><polygon class="cls-91" points="703.44 353.73 714.43 353.73 714.47 352.38 703.49 352.38 703.44 353.73"/><polygon class="cls-91" points="700.25 331.91 715.06 331.91 715.1 330.59 700.3 330.59 700.25 331.91"/><polygon class="cls-91" points="725.15 364.72 740.28 364.72 740.3 363.36 725.19 363.36 725.15 364.72"/><polygon class="cls-91" points="762.68 331.91 773.65 331.91 773.65 330.59 762.69 330.59 762.68 331.91"/><polygon class="cls-91" points="758.66 341.43 740.68 341.43 740.65 342.76 758.65 342.76 758.66 341.43"/><polygon class="cls-91" points="773.66 321.24 784.49 321.24 784.49 319.94 773.67 319.94 773.66 321.24"/><polygon class="cls-91" points="769.64 352.38 758.57 352.38 758.56 353.73 769.63 353.73 769.64 352.38"/><polygon class="cls-91" points="769.59 364.72 784.63 364.72 784.63 363.36 769.6 363.36 769.59 364.72"/><polygon class="cls-91" points="829.26 342.76 851.22 342.76 851.17 341.43 829.23 341.43 829.26 342.76"/><polygon class="cls-91" points="828.75 321.24 872.22 321.24 872.16 319.94 828.72 319.94 828.75 321.24"/><polygon class="cls-91" points="814.66 364.72 874.14 364.72 874.08 363.36 814.64 363.36 814.66 364.72"/><polygon class="cls-91" points="885.18 364.72 933.61 364.72 933.52 363.36 885.11 363.36 885.18 364.72"/><polygon class="cls-91" points="897.79 319.94 897.87 321.24 926.6 321.24 926.51 319.94 897.79 319.94"/><polygon class="cls-91" points="932.83 353.73 943.82 353.73 943.72 352.38 932.73 352.38 932.83 353.73"/><polygon class="cls-91" points="955.7 364.72 993 364.72 992.87 363.36 955.59 363.36 955.7 364.72"/><polygon class="cls-91" points="962.96 319.94 952.05 319.94 952.16 321.24 963.07 321.24 962.96 319.94"/><polygon class="cls-91" points="977.89 321.24 988.72 321.24 988.59 319.94 977.77 319.94 977.89 321.24"/><polygon class="cls-91" points="1021.13 319.94 999.41 319.94 999.54 321.24 1021.28 321.24 1021.13 319.94"/><polygon class="cls-91" points="1036.1 321.24 1057.84 321.24 1057.67 319.94 1035.95 319.94 1036.1 321.24"/><polygon class="cls-91" points="1026.22 364.72 1041.35 364.72 1041.18 363.36 1026.07 363.36 1026.22 364.72"/><polygon class="cls-91" points="1079.39 319.94 1068.48 319.94 1068.66 321.24 1079.57 321.24 1079.39 319.94"/><polygon class="cls-91" points="1074.56 364.72 1111.87 364.72 1111.66 363.36 1074.38 363.36 1074.56 364.72"/><polygon class="cls-91" points="1094.4 321.24 1105.22 321.24 1105.02 319.94 1094.2 319.94 1094.4 321.24"/><polygon class="cls-91" points="1132.03 352.38 1120.96 352.38 1121.17 353.73 1132.25 353.73 1132.03 352.38"/><polygon class="cls-91" points="1130.65 319.94 1130.87 321.24 1159.6 321.24 1159.37 319.94 1130.65 319.94"/><polygon class="cls-91" points="1134.04 364.72 1171.34 364.72 1171.1 363.36 1133.82 363.36 1134.04 364.72"/><polygon class="cls-91" points="1169.36 353.73 1180.35 353.73 1180.1 352.38 1169.12 352.38 1169.36 353.73"/><polygon class="cls-91" points="1208.77 330.59 1201.83 330.59 1202.09 331.91 1209.04 331.91 1208.77 330.59"/><polygon class="cls-91" points="1193.43 364.72 1208.55 364.72 1208.29 363.36 1193.17 363.36 1193.43 364.72"/><polygon class="cls-91" points="1235.27 352.38 1224.2 352.38 1224.48 353.73 1235.55 353.73 1235.27 352.38"/><polygon class="cls-91" points="1221.95 341.43 1210.94 341.43 1211.21 342.76 1222.23 342.76 1221.95 341.43"/><polygon class="cls-91" points="1237.87 364.72 1252.91 364.72 1252.61 363.36 1237.58 363.36 1237.87 364.72"/></svg>